# xmcd CD database file
#
# Track frame offsets:
#	150
#	26712
#	56443
#	91984
#	111747
#	125345
#	154589
#	175181
#
# Disc length: 2813 seconds
#
# Revision: 0
# Processed by: cddbd v1.5.1PL0 Copyright (c) Steve Scherf et al.
# Submitted via: CDex 1.51
#
DISCID=640afb08
DTITLE=The Trevor Richards New Orleans Trio - Drum Face
DYEAR=1977
DGENRE=Jazz
TTITLE0=Barrelhouse Boogie
TTITLE1=Sugar Blues
TTITLE2=Please don´t talk about me when I am gone
TTITLE3=Nobody knows you when you are down and out
TTITLE4=Nobody´s fault but mine
TTITLE5=Mood indigo
TTITLE6=Cherry
TTITLE7=Drum face
EXTD=YEAR: 1977
EXTT0=
EXTT1=
EXTT2=
EXTT3=
EXTT4=
EXTT5=
EXTT6=
EXTT7=
PLAYORDER=
